<svg width="41" height="40" viewBox="0 0 41 40" fill="none" xmlns="http://www.w3.org/2000/svg">
<path d="M10.6602 6.64235C5.25506 10.2953 0.831056 13.2908 0.831056 13.3009C0.827043 13.3191 8.98286 18.667 9.00693 18.661C9.03302 18.6529 18.7899 12.0226 18.7899 12.0125C18.7899 12.0064 17.9352 11.4381 16.8919 10.7483C15.8466 10.0586 14.9758 9.48013 14.9578 9.46395C14.9237 9.43563 15.1283 9.29405 17.5741 7.64154L20.2264 5.84947L20.2987 5.89194C20.4251 5.96678 31.771 13.5598 31.773 13.5699C31.773 13.576 27.5155 16.4603 22.313 19.9818C17.1106 23.5032 12.8551 26.3895 12.8591 26.3976C12.8631 26.4138 16.918 29.1241 16.936 29.1241C16.9461 29.1241 40.4705 13.3394 40.4986 13.3131C40.5046 13.309 40.4906 13.2888 40.4685 13.2686C40.4264 13.2241 20.5174 -0.00206947 20.4993 -4.76837e-05C20.4933 -4.76837e-05 16.0653 2.98944 10.6602 6.64235Z" fill="white"/>
<path d="M36.0385 2.7407C33.7974 4.23544 31.9636 5.4632 31.9596 5.46724C31.9476 5.47938 36.0144 8.23828 36.0445 8.23828C36.0626 8.2403 36.9915 7.61732 38.1091 6.85883L40.1395 5.47533V2.74677C40.1395 1.24596 40.1335 0.0182114 40.1254 0.0182114C40.1154 0.0202341 38.2776 1.24394 36.0385 2.7407Z" fill="white"/>
<path d="M20.3769 13.3333C18.3525 14.6926 13.0497 18.2524 8.59362 21.2439C4.13752 24.2354 0.495991 26.6909 0.500003 26.7031C0.50201 26.7132 3.21861 28.5235 6.5331 30.7261C9.8496 32.9288 14.3458 35.9163 16.5287 37.3665L20.4933 40L30.3124 33.3677C35.7114 29.7189 40.1415 26.7233 40.1555 26.7091C40.1756 26.6889 39.3831 26.161 36.0967 24.0109C33.8516 22.5405 32.0037 21.337 31.9937 21.337C31.9556 21.337 22.2007 27.9773 22.2167 27.9915C22.2248 27.9996 23.0915 28.572 24.1388 29.2658C25.1881 29.9575 26.0529 30.532 26.0609 30.54C26.081 30.5583 20.8023 34.1282 20.7581 34.1282C20.7039 34.1262 9.2196 26.428 9.23966 26.4078C9.2497 26.3977 13.5052 23.5154 18.6936 20.002C23.884 16.4907 28.1315 13.6084 28.1335 13.5983C28.1375 13.5862 24.6685 11.254 24.1107 10.896L24.0566 10.8617L20.3769 13.3333Z" fill="white"/>
<path d="M2.71703 33.1452L0.674561 34.5347V37.2734C0.674561 39.4599 0.68058 40.008 0.700643 39.9918C0.712681 39.9817 2.54448 38.76 4.76751 37.2754C6.99055 35.7928 8.82235 34.5691 8.83439 34.557C8.85445 34.5388 8.37092 34.201 6.82603 33.1492C5.70649 32.3887 4.78357 31.7617 4.77353 31.7596C4.76551 31.7576 3.83857 32.3806 2.71703 33.1452Z" fill="white"/>
</svg>
